<?xml version="1.0" standalone="no"?>
<!DOCTYPE svg PUBLIC "-//W3C//DTD SVG 20010904//EN"
 "http://www.w3.org/TR/2001/REC-SVG-20010904/DTD/svg10.dtd">
<svg version="1.0" xmlns="http://www.w3.org/2000/svg"
 width="1600.000000pt" height="592.000000pt" viewBox="0 0 1600.000000 592.000000"
 preserveAspectRatio="xMidYMid meet">

<g transform="translate(0.000000,592.000000) scale(0.100000,-0.100000)"
fill="#000000" stroke="none">
<path d="M5620 5608 c-19 -7 -51 -21 -72 -32 -20 -12 -688 -670 -1484 -1464
-796 -793 -1451 -1441 -1455 -1440 -5 2 -233 226 -508 498 -274 272 -508 502
-520 511 -12 9 -48 24 -80 34 -54 16 -66 16 -123 4 -114 -25 -180 -90 -220
-216 -16 -49 -16 -55 2 -119 11 -36 26 -76 33 -88 8 -12 240 -246 516 -521
275 -274 501 -502 501 -505 0 -7 -48 -56 -585 -589 -234 -233 -434 -438 -443
-455 -58 -109 -56 -183 8 -296 31 -54 101 -104 177 -126 63 -18 100 -14 182
22 49 22 119 88 558 526 276 276 505 500 507 497 3 -2 229 -228 503 -501 442
-441 505 -500 558 -524 85 -39 150 -38 237 4 111 54 174 158 166 272 -9 111
-10 113 -561 660 l-512 509 1461 1458 c804 802 1466 1469 1472 1483 46 109 41
183 -20 290 -48 83 -202 139 -298 108z"/>
<path d="M13209 3499 c-146 -12 -292 -113 -357 -248 -24 -50 -27 -67 -27 -162
0 -102 1 -108 38 -182 46 -93 144 -200 314 -342 184 -155 279 -253 293 -305
17 -62 5 -108 -39 -150 -66 -63 -160 -77 -246 -37 -54 25 -144 116 -167 167
-7 16 -15 30 -18 29 -3 0 -43 -24 -90 -54 -47 -30 -104 -64 -127 -76 -24 -12
-43 -26 -43 -30 0 -4 22 -40 49 -81 128 -191 272 -269 493 -267 217 1 374 91
459 264 26 53 32 78 36 162 7 123 -7 191 -54 272 -48 80 -115 149 -293 300
-282 240 -325 292 -300 366 15 44 80 85 136 85 61 0 140 -43 205 -111 l58 -60
98 88 c54 48 105 94 113 102 12 12 3 24 -67 91 -157 151 -269 195 -464 179z"/>
<path d="M6260 2630 l0 -830 454 0 453 0 -3 153 -3 152 -298 5 -298 5 0 218 0
217 300 0 300 0 0 150 0 150 -297 0 -298 0 0 155 0 155 296 2 296 3 1 148 2
147 -452 0 -453 0 0 -830z"/>
<path d="M7377 3448 c5 -7 25 -38 45 -68 19 -30 100 -154 180 -275 250 -381
279 -425 284 -440 4 -9 -29 -68 -78 -142 -47 -71 -106 -162 -133 -203 -26 -41
-57 -88 -68 -104 -89 -129 -157 -239 -152 -247 4 -5 2 -8 -4 -7 -8 3 -111
-143 -111 -157 0 -3 78 -5 173 -5 l172 0 65 98 c36 54 121 185 190 290 69 105
128 191 131 192 5 0 125 -178 199 -295 8 -13 53 -83 99 -155 l85 -130 173 0
c95 0 173 2 173 4 0 2 -26 44 -58 92 -32 49 -81 123 -107 164 -27 41 -117 179
-200 305 -83 127 -159 244 -170 261 l-18 32 48 73 c287 437 454 692 469 717 6
9 -31 12 -168 12 l-175 0 -67 -102 c-215 -332 -280 -427 -286 -425 -3 1 -84
120 -178 265 l-172 262 -175 0 c-139 0 -173 -3 -166 -12z"/>
<path d="M9560 3449 c0 -10 -9 -33 -95 -254 -71 -179 -246 -635 -270 -700 -12
-33 -42 -112 -68 -175 -25 -63 -57 -144 -70 -180 -14 -36 -45 -117 -70 -180
-24 -63 -48 -125 -51 -137 l-7 -23 159 0 160 0 56 143 c30 78 60 154 65 170
l11 27 347 0 348 0 27 -72 c15 -40 44 -117 64 -170 l37 -98 163 0 163 0 -18
43 c-10 23 -37 92 -60 152 -24 61 -61 157 -83 215 -41 107 -57 150 -123 320
-20 52 -47 122 -60 155 -12 33 -42 110 -65 170 -99 256 -129 335 -159 415 -18
47 -42 109 -54 138 l-21 52 -163 0 c-110 0 -163 -4 -163 -11z m189 -461 c5
-18 33 -91 61 -163 28 -71 64 -164 80 -205 15 -41 37 -96 48 -122 11 -25 18
-49 15 -52 -9 -9 -453 -7 -453 1 0 7 50 137 90 233 10 25 40 99 65 165 25 66
51 132 57 148 14 36 25 34 37 -5z"/>
<path d="M10941 3398 c-7 -35 -16 -90 -22 -123 -5 -33 -18 -107 -28 -165 -11
-58 -29 -159 -41 -225 -12 -66 -30 -167 -40 -225 -10 -58 -28 -157 -39 -220
-44 -259 -62 -360 -80 -460 -11 -58 -22 -122 -25 -142 l-5 -38 149 0 149 0 6
38 c13 73 46 259 65 362 10 58 28 159 40 225 11 66 29 170 40 230 10 61 22
130 25 153 4 24 11 40 15 35 5 -4 86 -241 181 -525 l172 -518 138 0 137 0 16
43 c8 23 54 157 101 297 232 696 255 757 255 683 0 -17 7 -67 15 -110 9 -43
22 -118 29 -168 8 -49 35 -211 61 -360 25 -148 48 -286 51 -305 13 -88 -4 -80
164 -80 l149 0 -5 38 c-3 20 -12 74 -20 120 -28 158 -135 797 -145 862 -5 36
-16 101 -24 145 -23 131 -46 264 -61 365 -22 145 -2 131 -177 128 l-151 -3
-93 -275 c-51 -151 -138 -411 -194 -578 -56 -166 -105 -299 -108 -296 -3 3
-92 263 -197 577 l-191 572 -151 3 -150 3 -11 -63z"/>
<path d="M6320 1115 l0 -235 40 0 40 0 0 150 c0 83 3 150 8 150 4 -1 43 -57
87 -126 113 -178 110 -174 156 -174 l39 0 0 235 0 235 -40 0 -39 0 -3 -157 -3
-158 -104 158 -103 157 -39 0 -39 0 0 -235z"/>
<path d="M8130 1115 l0 -235 125 0 125 0 0 40 0 39 -82 3 -83 3 -3 63 -3 62
86 0 85 0 0 45 0 44 -82 -1 -83 -1 0 44 0 44 83 3 82 3 0 39 0 40 -125 0 -125
0 0 -235z"/>
<path d="M9790 1115 l0 -235 45 0 45 0 0 99 0 98 60 7 c47 6 68 14 93 36 30
26 32 33 32 93 0 55 -4 69 -24 91 -32 34 -78 46 -173 46 l-78 0 0 -235z m188
128 c27 -37 3 -72 -53 -76 l-40 -2 -3 54 -3 54 43 -7 c24 -4 49 -14 56 -23z"/>
<path d="M11619 1323 c-49 -126 -106 -273 -134 -350 l-34 -93 43 0 c43 0 44 1
65 50 l22 51 97 -3 96 -3 17 -45 c16 -44 18 -45 64 -48 42 -3 47 -1 41 15 -4
10 -25 63 -46 118 -22 55 -59 152 -83 215 l-43 115 -47 3 c-44 3 -48 1 -58
-25z m89 -173 c11 -30 23 -63 27 -72 6 -16 0 -18 -52 -18 -33 0 -62 3 -65 6
-3 3 4 31 16 62 13 31 26 66 30 76 9 26 19 13 44 -54z"/>
<path d="M13300 1115 l0 -235 110 0 110 0 0 40 0 39 -67 3 -68 3 -3 193 -2
192 -40 0 -40 0 0 -235z"/>
</g>
</svg>
